<?xml version="1.0" encoding="utf-8"?>
<!-- Generator: Adobe Illustrator 24.2.2, SVG Export Plug-In . SVG Version: 6.00 Build 0)  -->
<svg version="1.0" id="Layer_1" xmlns="http://www.w3.org/2000/svg" xmlns:xlink="http://www.w3.org/1999/xlink" x="0px" y="0px"
	 viewBox="0 0 200 200" style="enable-background:new 0 0 200 200;" xml:space="preserve">
<style type="text/css">
	.st0{fill:#0674A6;}
	.st1{fill:#0773AF;}
</style>
<g>
	<g>
		<g>
			<path class="st0" d="M83.4,13.3c-38.7,0-70,31.3-70,70s31.3,70,70,70s70-31.3,70-70C153.3,44.7,122,13.4,83.4,13.3z M83.4,20
				c20.6,0,39.9,10.1,51.7,26.9l-8.3,8.3c-2-1.2-4.3-1.9-6.7-1.9c-7.4,0-13.3,6-13.3,13.3c0,2.4,0.7,4.7,1.9,6.7L86.8,95.2
				c-4.1-2.5-9.3-2.5-13.5,0L58.1,80.1c1.2-2,1.9-4.4,1.9-6.7C60,66,54.1,60,46.8,60c-6.1,0-11.4,4.1-12.9,10H21.5
				C27.8,40.9,53.6,20.1,83.4,20z M126.7,66.7c0,3.7-3,6.7-6.7,6.7c-3.7,0-6.7-3-6.7-6.7c0-3.7,3-6.7,6.7-6.7
				C123.7,60,126.7,63,126.7,66.7z M86.7,106.7c0,3.7-3,6.7-6.7,6.7c-3.7,0-6.7-3-6.7-6.7s3-6.7,6.7-6.7
				C83.7,100,86.7,103,86.7,106.7z M53.4,73.3c0,3.7-3,6.7-6.7,6.7C43,80,40,77,40,73.3s3-6.7,6.7-6.7
				C50.4,66.7,53.4,69.7,53.4,73.3z M114.1,138.7c-9.4,5.2-20,8-30.8,8c-35,0-63.3-28.3-63.3-63.2c0-2.3,0.1-4.5,0.4-6.8h13.4
				c1.5,5.9,6.8,10,12.9,10c2.4,0,4.7-0.7,6.7-1.9l15.2,15.2c-1.2,2-1.9,4.4-1.9,6.7c0,7.4,6,13.3,13.3,13.3c7.4,0,13.3-6,13.3-13.3
				c0-2.4-0.7-4.7-1.9-6.7l21.8-21.8c2,1.2,4.4,1.9,6.7,1.9c7.4,0,13.3-6,13.3-13.3c0-2.4-0.7-4.7-1.9-6.7l7.3-7.3
				C155.7,83.2,144.7,121.8,114.1,138.7z"/>
		</g>
	</g>
	<g>
		<g>
			<path class="st0" d="M166.7,33.3c6.1,0,11.3-4.1,12.9-10H200v-6.7h-20.5c-1.5-5.9-6.8-10-12.9-10c-7.4,0-13.3,6-13.3,13.3
				c0,2.4,0.7,4.7,1.9,6.7l-5.9,5.9c-28-36.5-80.3-43.4-116.8-15.4s-43.4,80.3-15.4,116.8c26.5,34.5,74.9,42.8,111.4,19.2l10.1,10.1
				l4.7,4.7l26.8,26.8c6.8,6.8,17.9,6.8,24.7,0c6.8-6.8,6.8-17.9,0-24.7l-26.8-26.8l-4.7-4.7l-10.1-10.1c17.9-27.5,17.9-62.9,0-90.4
				l6.7-6.7C162,32.7,164.3,33.3,166.7,33.3z M166.7,13.3c3.7,0,6.7,3,6.7,6.7s-3,6.7-6.7,6.7c-3.7,0-6.7-3-6.7-6.7
				S163,13.3,166.7,13.3z M190.2,174.9c4.3,4.2,4.3,11,0.2,15.3c-4.2,4.3-11,4.3-15.3,0.2c-0.1-0.1-0.1-0.1-0.2-0.2l-26.8-26.8
				l15.3-15.3L190.2,174.9z M158.7,143.3l-15.3,15.3l-9.2-9.2c0.5-0.4,0.9-0.8,1.4-1.1s1-0.8,1.5-1.2c0.7-0.6,1.4-1.2,2.2-1.9
				c0.4-0.3,0.7-0.7,1.1-1c1.4-1.3,2.7-2.6,4-4c0.3-0.4,0.7-0.7,1-1.1c0.6-0.7,1.3-1.4,1.9-2.2c0.4-0.5,0.8-1,1.2-1.5
				c0.4-0.5,0.8-0.9,1.1-1.4L158.7,143.3z M145.7,127.9c-1,1.5-2.1,2.9-3.3,4.3c-0.3,0.4-0.7,0.8-1,1.2c-1,1.2-2.1,2.3-3.2,3.5
				c-0.5,0.5-1,1-1.4,1.4c-1.1,1.1-2.3,2.1-3.5,3.2c-0.4,0.3-0.8,0.7-1.2,1c-1.4,1.1-2.8,2.2-4.3,3.3
				c-34.5,24.7-82.5,16.7-107.1-17.8S4.1,45.4,38.6,20.7s82.5-16.7,107.1,17.8C164.8,65.3,164.8,101.2,145.7,127.9z"/>
		</g>
	</g>
</g>
</svg>
