<?xml version="1.0" encoding="utf-8"?>
<!-- Generator: Adobe Illustrator 24.2.2, SVG Export Plug-In . SVG Version: 6.00 Build 0)  -->
<svg version="1.0" id="Layer_1" xmlns="http://www.w3.org/2000/svg" xmlns:xlink="http://www.w3.org/1999/xlink" x="0px" y="0px"
	 viewBox="0 0 200 200" style="enable-background:new 0 0 200 200;" xml:space="preserve">
<style type="text/css">
	.st0{fill:#0674A6;}
	.st1{fill:#0773AF;}
</style>
<g>
	<g>
		<g>
			<path class="st1" d="M151.7,0H18.3C9.1,0,1.7,7.5,1.7,16.7v106.7c0,7.6,5.1,14.2,12.5,16.1l1.7-6.5c-4.4-1.1-7.5-5.1-7.5-9.7
				V16.7c0-5.5,4.5-10,10-10h133.3c5.5,0,10,4.5,10,10V20h6.7v-3.3C168.3,7.5,160.9,0,151.7,0z"/>
		</g>
	</g>
	<g>
		<g>
			<rect x="15" y="13.3" class="st1" width="6.7" height="6.7"/>
		</g>
	</g>
	<g>
		<g>
			<rect x="28.3" y="13.3" class="st1" width="6.7" height="6.7"/>
		</g>
	</g>
	<g>
		<g>
			<rect x="41.7" y="13.3" class="st1" width="6.7" height="6.7"/>
		</g>
	</g>
	<g>
		<g>
			<path class="st1" d="M197.4,184.3l-31.6-31.6c1.7-3,3-6.1,4-9.4h5.3v-6.7h-3.9c1.3-8.1,0.3-16.3-2.8-23.9V80h-6.7v21.2
				c-2-2.5-4.2-4.8-6.7-6.9V66.7h-6.7v23c-2.1-1.2-4.4-2.3-6.7-3.2V53.3H135v31.1c-2.2-0.5-4.4-0.8-6.7-0.9V60h-6.7v23.5
				c-2.2,0.1-4.5,0.5-6.7,0.9V73.3h-6.7v13.1c-2.3,0.9-4.5,1.9-6.7,3.2V70H95v24.3c-2.5,2.1-4.7,4.4-6.7,6.9V76.7h-6.7v36.1
				c-3.1,7.6-4.1,15.8-2.8,23.9H35v6.7h45.3c7.3,24.7,33.2,38.7,57.9,31.4c4.9-1.4,9.5-3.7,13.6-6.6l30.9,30.9
				c1.3,1.3,3.4,1.3,4.7,0l10-10C198.7,187.7,198.7,185.6,197.4,184.3z M125,170c-22.1,0-40-17.9-40-40c0-22.1,17.9-40,40-40
				s40,17.9,40,40S147.1,170,125,170z M185,192l-28-28c1.8-1.7,3.5-3.6,5-5.6l28.3,28.3L185,192z"/>
		</g>
	</g>
	<g>
		<g>
			<path class="st1" d="M125,96.7c-18.4,0-33.3,14.9-33.3,33.3s14.9,33.3,33.3,33.3s33.3-14.9,33.3-33.3
				C158.3,111.6,143.4,96.7,125,96.7z M125,156.7c-9.5,0-18.3-5.1-23.1-13.3h46.1C143.3,151.6,134.5,156.7,125,156.7z M99.2,136.7
				c-2.7-10.2,0.9-20.9,9.1-27.5V130h6.7v-24.7c2.1-0.9,4.4-1.4,6.7-1.7V130h6.7v-26.4c2.3,0.3,4.5,0.9,6.7,1.7V130h6.7v-20.8
				c8.2,6.5,11.8,17.3,9.1,27.5H99.2z"/>
		</g>
	</g>
	<g>
		<g>
			<path class="st1" d="M171.7,26.7H38.3c-9.2,0-16.7,7.5-16.7,16.7V150c0,9.2,7.5,16.7,16.7,16.7h43.3V160H38.3
				c-5.5,0-10-4.5-10-10V43.3c0-5.5,4.5-10,10-10h133.3c5.5,0,10,4.5,10,10V150c0,2.4-0.9,4.8-2.5,6.6l5,4.4c2.7-3,4.2-7,4.2-11
				V43.3C188.3,34.1,180.9,26.7,171.7,26.7z"/>
		</g>
	</g>
	<g>
		<g>
			<rect x="35" y="40" class="st1" width="6.7" height="6.7"/>
		</g>
	</g>
	<g>
		<g>
			<rect x="48.3" y="40" class="st1" width="6.7" height="6.7"/>
		</g>
	</g>
	<g>
		<g>
			<rect x="61.7" y="40" class="st1" width="6.7" height="6.7"/>
		</g>
	</g>
	<g>
		<g>
			<rect x="41.7" y="110" class="st1" width="6.7" height="20"/>
		</g>
	</g>
	<g>
		<g>
			<rect x="55" y="90" class="st1" width="6.7" height="40"/>
		</g>
	</g>
	<g>
		<g>
			<rect x="68.3" y="100" class="st1" width="6.7" height="30"/>
		</g>
	</g>
</g>
</svg>
