<?xml version="1.0" encoding="utf-8"?>
<!-- Generator: Adobe Illustrator 25.2.1, SVG Export Plug-In . SVG Version: 6.00 Build 0)  -->
<svg version="1.1" id="Layer_1" xmlns="http://www.w3.org/2000/svg" xmlns:xlink="http://www.w3.org/1999/xlink" x="0px" y="0px"
	 viewBox="0 0 430 190" style="enable-background:new 0 0 430 190;" xml:space="preserve">
<style type="text/css">
	.st0{fill:none;stroke:#60B52A;stroke-miterlimit:10;}
	.st1{fill:#FFFFFF;}
	.st2{fill:none;}
</style>
<line class="st0" x1="1679.8" y1="-233.6" x2="1679.8" y2="574.5"/>
<g>
	<g>
		<path class="st1" d="M197.8,49c0.5,0.4,0.7,0.6,0.9,0.9c3.3,3.4,6.6,6.8,9.9,10.1c0.5,0.5,0.7,1,0.7,1.6c0,3.2,0,6.5,0,9.7
			c0,0.5,0,0.9,0,1.4c0.3,0.1,0.5,0.1,0.7,0.1c0.4,0,0.8,0,1.2,0c9.9,0,19.9,0,29.7,0c0.4,0,0.7,0,1.1,0c0.5,0,0.9,0.1,1.2,0.5
			c2.4,2.6,4.9,5.3,7.4,7.9c0.4,0.4,0.6,0.8,0.5,1.3c0,0.2,0,0.5,0,0.7c0,14.8,0,29.4,0,44.2c0,1.8,0.2,1.3-1.1,2.6
			c-2.2,2.2-4.5,4.4-6.7,6.7c-0.5,0.5-1.1,0.8-1.8,0.8c-11.4,0-22.7,0-34,0c-0.2,0-0.4,0-0.6,0c-0.4,0-0.6-0.1-0.9-0.4
			c-0.2-0.2-0.3-0.4-0.5-0.6c-2.4-2.6-4.7-5.2-7.1-7.8c-0.5-0.5-0.7-1.1-0.7-1.8c0-0.6,0-1.2,0-1.7c0-24.8,0-49.6,0-74.4
			C197.8,50.3,197.8,49.8,197.8,49z M239.4,125.8c0.1-0.2,0.1-0.4,0.1-0.5c0-13.5,0-26.9,0-40.4c0-0.2-0.1-0.3-0.1-0.5
			c-0.5-0.1-1-0.1-1.5-0.1c-8.1,0-16.2,0-24.2,0c-1.2,0-2.4,0-3.6,0c-0.2,0-0.5,0.1-0.8,0.1c0,0.6,0,1,0,1.5c0,12.8,0,25.5,0,38.2
			c0,0.3,0,0.6,0,0.9c0,0.2,0.1,0.5,0.1,0.8c9.9,0,19.7,0,29.4,0C239,125.9,239.2,125.8,239.4,125.8z"/>
		<path class="st1" d="M358.9,137.6c-0.2-0.2-0.4-0.5-0.6-0.7c-2.2-2.4-4.4-4.8-6.7-7.2c-0.5-0.5-0.7-1-0.7-1.8
			c0-15.2,0-30.3,0-45.6c0-0.7,0.2-1.2,0.7-1.8c2.3-2.4,4.5-4.8,6.7-7.2c0.5-0.6,1.1-0.8,1.8-0.8c10.4,0,20.7,0,31.1,0
			c0.3,0,0.7,0,1,0c0.3,0.3,0.5,0.5,0.8,0.8c2.2,2.4,4.5,4.8,6.7,7.2c0.5,0.5,0.7,1,0.7,1.6c0,9.2,0,18.5,0,27.6c0,0.3,0,0.6,0,0.9
			c-0.3,0-0.5,0.1-0.7,0.1c-0.4,0-0.8,0-1.2,0c-11.6,0-23.2,0-34.8,0c-0.5,0-1.1-0.1-1.6,0.1c0,0.3-0.1,0.5-0.1,0.8
			c-0.1,3.5,0,12.9,0.1,14.1c0.2,0,0.4,0.1,0.7,0.1c0.4,0,0.8,0,1.2,0c11.6,0,23.2,0,34.8,0c0.5,0,1-0.1,1.5,0.1
			c0,0.4-0.3,0.7-0.5,1c-2,2.9-4,5.8-6,8.7c-0.3,0.4-0.6,0.8-0.8,1.2c-0.3,0.5-0.7,0.7-1.2,0.6c-0.2,0-0.4,0-0.6,0
			c-10.2,0-20.3,0-30.6,0C359.9,137.6,359.5,137.6,358.9,137.6z M361.9,99.4c0.5,0.2,1,0.1,1.4,0.1c3.6,0,7.2,0,10.8,0
			c4.7,0,9.4,0,14.1,0c0.4,0,0.9,0.1,1.4-0.1c0-0.3,0.1-0.5,0.1-0.7c0-0.7,0-1.4,0-2.1c0-3.6,0-7.2,0-10.8c0-0.4,0.1-0.9-0.2-1.4
			c-0.5,0-0.9,0-1.4,0c-6.3,0-12.7,0-19,0c-2.1,0-4.2,0-6.3,0c-0.3,0-0.6,0.1-1,0.1C361.9,89.4,361.9,94.3,361.9,99.4z"/>
		<path class="st1" d="M309.6,137.6c-13.2,0-26.1,0-39.2,0c-2.6-2.7-5.2-5.5-7.9-8.3c0-0.5,0-0.9,0-1.4c0-15.2,0-30.3,0-45.4
			c0-1.7-0.2-1.2,1-2.5c2-2.1,4-4.3,6-6.4c0.6-0.6,1.2-0.9,2-0.9c12.2,0,24.4,0,36.6,0c0.2,0,0.4,0,0.6,0c0.4,0,0.6,0.1,0.9,0.4
			c0.1,0.2,0.3,0.3,0.4,0.4c2.2,2.3,4.4,4.7,6.6,7c0.5,0.5,0.7,1.1,0.7,1.9c0,15.2,0,30.3,0,45.4c0,0.7-0.2,1.3-0.7,1.8
			c-2.3,2.5-4.6,5-6.9,7.5C309.9,137.3,309.7,137.4,309.6,137.6z M306.6,84.8c-0.1-0.1-0.1-0.2-0.2-0.2s-0.2-0.1-0.2-0.1
			c-10.5,0-20.8,0-31.3,0c-0.4,0-0.8,0-1.2,0h-0.1c0,0-0.1,0.1-0.2,0.2c0,0.4,0,0.9,0,1.4c0,11.9,0,23.7,0,35.6c0,1.1,0,2.1,0,3.2
			c0,0.3,0.1,0.6,0.1,0.8c0.5,0.2,1,0.1,1.5,0.1c10.1,0,20,0,30.1,0c0.3,0,0.6,0,0.9,0c0.2,0,0.5-0.1,0.8-0.2c0-13.5,0-26.9,0-40.4
			C306.6,85.2,306.6,84.9,306.6,84.8z"/>
		<path class="st1" d="M339.7,137.4c-0.3,0.1-0.4,0.1-0.5,0.1c-3.3,0-6.5,0-9.8,0c-0.1,0-0.2-0.1-0.4-0.1c0-0.2-0.1-0.5-0.1-0.7
			c0-0.4,0-0.7,0-1.1c0-27.9,0-56,0-83.9c0-0.5,0-1.1,0-1.6c0.5-0.2,0.6,0.1,0.8,0.3c2.3,2.3,4.5,4.6,6.8,6.9
			c0.9,0.9,1.8,1.9,2.8,2.8c0.4,0.3,0.5,0.7,0.5,1.2c0,0.3,0,0.6,0,0.9c0,24.5,0,49,0,73.5C339.7,136.2,339.7,136.8,339.7,137.4z"/>
		<path class="st1" d="M406.4,73.1c-4.2,0.1-8.5-3.3-8.6-8.5c0-5.2,4.3-8.6,8.6-8.6c4.5,0,8.5,3.7,8.5,8.6
			C415,69.3,411,73.1,406.4,73.1z M406.4,57.1c-3.9-0.1-7.5,3.2-7.5,7.5c0,4.3,3.7,7.4,7.4,7.4c3.9,0,7.5-3.1,7.5-7.4
			C413.9,60.3,410.3,57,406.4,57.1z"/>
		<path class="st1" d="M408.1,64.7c0.9,0.9,1.5,1.9,2.1,2.9c-0.9,0.3-1,0.3-1.4-0.3c-0.3-0.5-0.6-1-0.9-1.5
			c-0.5-0.9-1.2-1.3-2.3-1.1c-0.1,0-0.2,0-0.4,0.1c0,0.3-0.1,0.5-0.1,0.8c0,0.7,0,1.4-0.1,2.1c-0.3,0-0.5,0-0.8,0
			c0-0.2-0.1-0.4-0.1-0.6c-0.1-3-0.1-5.4,0.2-6.3c0.1,0,0.3-0.1,0.4-0.1c1,0,1.9,0,2.9,0c0.3,0,0.7,0.1,1,0.2
			c0.7,0.2,1.1,0.7,1.2,1.4c0.1,0.7-0.1,1.4-0.7,1.9C408.7,64.4,408.4,64.6,408.1,64.7z M405.1,63.8c0.2,0,0.3,0.1,0.5,0.1
			c0.5,0,1.1,0,1.6,0c0.3,0,0.6-0.1,0.8-0.2c0.6-0.2,0.9-0.9,0.6-1.5c-0.2-0.4-0.5-0.5-0.9-0.6c-0.8-0.1-1.7-0.1-2.6,0
			C405,62.4,405,63.1,405.1,63.8z"/>
		<g>
			<path class="st2" d="M46.9,46.1c0.8,0,1.9,0,3,0C48.8,46.1,47.7,46.1,46.9,46.1z"/>
			<path class="st2" d="M72.5,46c0.7,0,1.4,0,2,0C73.8,46,73.2,46,72.5,46z"/>
			<path class="st2" d="M84.4,46c0.5,0,1,0,1.5,0C85.4,46,84.9,46,84.4,46z"/>
			<path class="st2" d="M91.6,46.2c0.1,0.1,0.1,0.2,0.2,0.3C91.7,46.4,91.6,46.3,91.6,46.2z"/>
			<path class="st2" d="M49.9,46.1c0.5,0,1,0,1.5,0C50.9,46.1,50.4,46.1,49.9,46.1z"/>
			<path class="st2" d="M74.5,46c0.7,0,1.3,0,2,0C75.7,46,75.2,46,74.5,46z"/>
			<path class="st2" d="M54.7,46c0.6,0,1.2,0,1.8,0C55.8,46,55.2,46,54.7,46z"/>
			<path class="st2" d="M56.4,46c0.6,0,1.2,0,1.9,0C57.7,46,57,46,56.4,46z"/>
			<path class="st2" d="M58.3,46c1,0,1.9,0,2.9,0C60.2,46,59.2,46,58.3,46z"/>
			<path class="st2" d="M61.2,46c0.7,0,1.3,0,2,0C62.6,46,61.9,46,61.2,46z"/>
			<path class="st2" d="M53,46.1c0.5,0,1.1,0,1.7,0C54.1,46.1,53.5,46.1,53,46.1z"/>
			<path class="st2" d="M65.3,46c1.4,0,2.8,0,4.1,0C68,46,66.6,46,65.3,46z"/>
			<path class="st2" d="M122.7,70.7c0,16.1,0,32.2,0,48.4c0,0.6,0,1.1,0,1.7c0.5,0.1,0.8,0.1,1.2,0.1c2.6,0,5.2,0,7.8,0
				c6,0,11.9,0,17.8,0c0.4,0,0.9,0,1.4,0c0-0.1,0-0.1,0-0.2c-0.5,0-0.9,0-1.3,0c-5.9,0-11.8,0-17.8,0c-2.6,0-5.2,0-7.8,0
				c-0.4,0-0.7,0-1.2-0.1c0-0.6,0-1.1,0-1.7c0-16.2,0-32.3,0-48.4c0-0.4,0-0.8,0-1.2c-0.1,0-0.1-0.1-0.2-0.2c0,0.1,0.1,0.3,0.1,0.4
				C122.7,69.9,122.7,70.3,122.7,70.7z"/>
			<path class="st2" d="M96.9,130.8c2.6,3,5.4,6,8,9l0,0C102.3,136.8,99.5,133.8,96.9,130.8L96.9,130.8z"/>
			<path class="st2" d="M46,46.1c0.3,0,0.6,0,0.9,0C46.6,46.1,46.3,46.1,46,46.1z"/>
			<path class="st2" d="M84.3,136.8c-12.9,0-25.7,0-38.6,0c-0.5,0-1,0-1.5,0l0.1,0.1c0.5,0,1,0,1.5,0
				C58.7,136.9,71.6,136.9,84.3,136.8c1.1,0.1,1.3,0,1.7,0.4C85.5,136.7,85.4,136.8,84.3,136.8z"/>
			<path class="st1" d="M177.4,14.2c-0.5,0-1.1,0-1.7,0c-25.4,0-51,0-76.5,0s-51.1,0-76.7-0.1c-0.5,0-1,0-1.5,0
				c-2.2,0-5.1,1.6-5.9,4.7c-0.2,0.9-0.2,1.7-0.2,2.5c0,48.9,0,97.8,0,146.6c0,0.3,0,0.7,0,1c0.1,3.6,3,5.9,5.5,6.1
				c0.7,0.1,1.3,0.1,1.9,0.1c25.2,0,50.5,0,75.7,0c25.9,0,52,0,77.9,0c0.7,0,1.3-0.1,1.9-0.1c2.1-0.2,4.5-1.9,5.3-4.6
				c0.2-0.9,0.2-1.7,0.2-2.6c0-48.8,0-97.7,0-146.5c0-0.4,0-0.8,0-1.2C183.2,16.9,180.4,14.3,177.4,14.2z M104.9,139.8
				c0,0.1,0,0.2,0,0.2l-0.1,0.1c-2.8,2.6-5.6,5.3-8.4,7.9c0,0-0.1,0.1-0.2,0.2c-0.1,0.1-0.1,0.1-0.2,0.2c-0.3-0.4-0.6-0.7-0.9-1
				c-2.9-3.2-5.7-6.3-8.6-9.5c-0.2-0.3-0.4-0.5-0.5-0.6c-0.3-0.3-0.5-0.3-1.6-0.3c-12.9,0-25.7,0-38.6,0c-0.5,0-1,0-1.5,0l-0.1-0.1
				l0,0c-2.3-2.5-4.5-5.1-6.8-7.6c-0.8-0.9-1.6-1.8-2.4-2.7c-0.5-0.4-0.7-1-0.5-1.6c0-0.2,0-0.4,0-0.6l0,0c0-21.9,0-43.8,0-65.7
				c0-1.8-0.2-1.3,1.1-2.7c2.9-3.2,5.8-6.5,8.7-9.7c0.1,0,0.7,0,1.7-0.1c0.3,0,0.6,0,0.9,0c0.8,0,1.9,0,3,0c0.5,0,1,0,1.5,0
				c0.5,0,1,0,1.6,0c0.5,0,1.1,0,1.7,0s1.2,0,1.8,0s1.2,0,1.9,0c1,0,1.9,0,2.9,0c0.7,0,1.3,0,2,0c0.7,0,1.4,0,2,0c1.4,0,2.8,0,4.1,0
				c1,0,2.1,0,3.1,0c0.7,0,1.4,0,2,0c0.7,0,1.3,0,2,0c2.9,0,5.7,0,8,0c0.5,0,1,0,1.5,0c2.6,0,4.6,0,5.6,0.1c0,0,0,0.1,0.1,0.1
				c0.1,0.1,0.1,0.2,0.2,0.3c0,0.1,0.1,0.1,0.1,0.2c2.9,3.2,5.7,6.4,8.6,9.6c0.5,0.6,0.8,1.1,0.7,1.8c0,0.2,0,0.5,0,0.7
				c0,21.7,0,43.6,0,65.4c0,1.2-0.2,2.2-1.1,3c-0.9,0.9-1.7,1.9-2.5,2.8c-0.1,0.1-0.2,0.2-0.3,0.4c-0.1,0.1-0.2,0.3-0.4,0.4
				C99.5,133.8,102.3,136.8,104.9,139.8L104.9,139.8z M166,70.6c0,18.2,0,36.2,0,54.4c0,0.6,0,1.1,0,1.6c-0.4,0.4-0.7,0.8-1,1.1
				c-2.7,2.8-5.3,5.7-8,8.5c-0.2,0.1-0.3,0.3-0.5,0.5c-0.3,0.3-0.6,0.4-1,0.4c-0.2,0-0.4,0-0.6,0c-12.1,0-24.2,0-36.3,0
				c-0.4,0-0.7,0-1.1,0c-0.3-0.3-0.7-0.6-1-1c-2.7-2.9-5.4-5.8-8.1-8.7c-0.6-0.6-0.8-1.2-0.8-2c0-11.7,0-23.3,0-35
				c0-6.7,0-13.3,0-20c0-0.5,0-1,0-1.5c0.3,0,0.5-0.1,0.7-0.1c4.6,0,9.2,0,13.8,0c0.1,0,0.3,0.1,0.5,0.1c0,0.1,0,0.1,0,0.2
				c0,0.1,0.1,0.2,0.2,0.2c0,0.4,0,0.8,0,1.2c0,16.1,0,32.2,0,48.4c0,0.6,0,1.1,0,1.7c0.5,0.1,0.8,0.1,1.2,0.1c2.6,0,5.2,0,7.8,0
				c6,0,11.9,0,17.8,0c0.4,0,0.8,0,1.3,0c0-0.2,0.1-0.4,0.1-0.6c0-0.5,0-0.9,0.1-1.4c0-16.1,0-32.2,0-48.3c0-0.6-0.1-1.1,0.1-1.6
				c0-0.1,0.1-0.1,0.1-0.1h0.1c4.6,0,9.3,0,13.9,0c0.2,0,0.4,0.1,0.7,0.1c0,0.2,0.1,0.5,0.1,0.7C166,69.9,166,70.2,166,70.6z"/>
			<path class="st1" d="M85.9,63.8c0-0.3,0-0.6,0-0.9c-0.1-0.2-0.1-0.4-0.2-0.7c-0.5,0-0.9,0-1.4,0c-11.1,0-22.1,0-33.2,0
				c-0.3,0-0.6,0-0.9,0c-0.2,0-0.4,0.1-0.6,0.1c-0.2,0.6-0.1,1.1,0,1.7c0,18.6,0,37.1,0,55.7c0,0.3,0,0.7,0,1c0,0.2,0.1,0.5,0.1,0.7
				c0.2,0,0.3,0.1,0.4,0.1c11.8,0,23.5,0,35.3,0c0.1,0,0.2-0.1,0.4-0.1c0.2-0.5,0.1-1.1,0.1-1.6C85.9,101.1,85.9,82.4,85.9,63.8z"/>
			<path class="st1" d="M151.1,119.8c0-0.4,0-0.8,0-1.2c-0.1,0.5-0.1,0.9-0.1,1.4c0,0.2,0,0.4-0.1,0.6h0.1
				C151,120.3,151.1,120,151.1,119.8z"/>
			<path class="st1" d="M122.6,68.9c0,0.1,0,0.1,0,0.2C122.6,69,122.6,69,122.6,68.9z"/>
			<path class="st1" d="M95.2,147.4c-2.9-3.2-5.7-6.3-8.6-9.5c-0.3-0.4-0.5-0.6-0.6-0.7c0.1,0.1,0.3,0.4,0.5,0.6
				C89.4,141,92.2,144.1,95.2,147.4c0.2,0.2,0.5,0.5,0.8,0.9c0.1-0.1,0.2-0.1,0.2-0.2c-0.1,0.1-0.1,0.1-0.2,0.1
				C95.7,147.9,95.4,147.6,95.2,147.4z"/>
			<path class="st1" d="M35.2,126.6c-0.5-0.5-0.7-1-0.6-1.7C34.4,125.5,34.6,126.1,35.2,126.6c0.7,0.8,1.5,1.7,2.3,2.6
				c2.3,2.5,4.5,5.1,6.8,7.6l0,0c-2.3-2.5-4.4-5-6.7-7.5C36.7,128.4,35.9,127.5,35.2,126.6z"/>
			<path class="st1" d="M96.9,130.8c0.2-0.2,0.2-0.3,0.4-0.4C97.1,130.5,97.1,130.6,96.9,130.8L96.9,130.8z"/>
		</g>
	</g>
	<g id="Layer_2_1_">
		<g id="Layer_1-2_1_">
			<path class="st1" d="M208.1,168.3h-7.4l-1.3,3.2h-2l5.8-14.6h2.3l5.9,14.6h-2L208.1,168.3z M201.3,166.7h6.3l-3.1-8.1
				L201.3,166.7z"/>
			<path class="st1" d="M220.1,164.6c0-1.9-0.9-2.4-2.4-2.4c-1.2,0-2.4,0.6-3.1,1.6v7.7H213V161h1.7v1.5c1-1.1,2.3-1.7,3.8-1.8
				c2.2,0,3.4,1.1,3.4,3.4v7.4h-1.6L220.1,164.6z"/>
			<path class="st1" d="M230.3,157h1.8v14.6h-1.8V157z"/>
			<path class="st1" d="M242.8,169.9c-0.8,1.1-2.2,1.8-3.6,1.8c-2.8,0-4.7-2.1-4.7-5.5c0-3.4,1.9-5.5,4.7-5.5c1.4,0,2.7,0.7,3.6,1.9
				V157h1.6v14.6h-1.6V169.9z M242.8,163.9c-0.7-1-1.9-1.7-3.2-1.7c-2.1,0-3.4,1.7-3.4,4.1c0,2.3,1.3,4.1,3.4,4.1
				c1.3,0,2.4-0.6,3.2-1.7V163.9z"/>
			<path class="st1" d="M252.1,160.7c3.2,0,5.1,2.5,5.1,5.7v0.4h-8.5c0,2.1,1.7,3.7,3.8,3.6l0,0c1.2,0,2.4-0.5,3.3-1.3l0.8,1.1
				c-1.1,1.1-2.6,1.7-4.2,1.6c-3.1,0-5.3-2.3-5.3-5.5C246.9,163.2,249,160.7,252.1,160.7z M248.6,165.6h6.9c0-1.9-1.4-3.5-3.3-3.5
				h-0.1C249.8,162.1,248.7,164,248.6,165.6z"/>
			<path class="st1" d="M259.6,161h1.6v1.7c0.8-1.2,2.1-1.9,3.5-1.9v1.7c-0.2,0-0.4-0.1-0.7-0.1c-1.2,0.1-2.2,0.7-2.9,1.7v7.4h-1.6
				L259.6,161L259.6,161L259.6,161z"/>
			<path class="st1" d="M273.1,170.3c-0.9,1-2.2,1.5-3.5,1.5c-1.8,0-3.7-1.2-3.7-3.5c0-2.3,1.9-3.5,3.7-3.5c1.3-0.1,2.6,0.5,3.5,1.4
				v-1.9c0-1.4-1.1-2.2-2.7-2.2c-1.2,0-2.4,0.5-3.2,1.5l-0.8-1.1c1.1-1.2,2.6-1.8,4.2-1.7c2.2,0,4.1,1,4.1,3.6v7.2h-1.6V170.3z
				 M273.1,167.3c-0.7-0.9-1.8-1.4-2.9-1.3c-1.5,0-2.6,1-2.6,2.3c0,1.3,1.1,2.3,2.6,2.3c1.1,0.1,2.2-0.4,2.9-1.3V167.3z"/>
			<path class="st1" d="M277.3,173.6c0.7-0.5,1.2-1.2,1.4-2c-0.1,0-0.2,0-0.3,0c-0.6,0-1-0.4-1-1v-0.1c0-0.6,0.5-1.2,1.2-1.2
				s1.4,0.6,1.4,1.7c0,1.3-0.7,2.5-1.8,3.3L277.3,173.6z"/>
			<path class="st1" d="M288,157h1.8v14.6H288V157z"/>
			<path class="st1" d="M300,164.6c0-1.9-0.9-2.4-2.4-2.4c-1.2,0-2.4,0.6-3.1,1.6v7.7h-1.6V161h1.6v1.5c1-1.1,2.3-1.7,3.8-1.8
				c2.2,0,3.4,1.1,3.4,3.4v7.4h-1.6L300,164.6L300,164.6z"/>
			<path class="st1" d="M309.4,160.7c1.5-0.1,3,0.6,3.9,1.8l-1.1,1c-0.6-0.9-1.6-1.4-2.7-1.4c-2.2,0-3.6,1.7-3.6,4.1
				s1.4,4.1,3.6,4.1c1.1,0,2.1-0.5,2.7-1.4l1.1,1c-0.9,1.2-2.3,1.9-3.9,1.8c-3.1,0-5.3-2.4-5.3-5.5
				C304.1,163.1,306.3,160.7,309.4,160.7z"/>
			<path class="st1" d="M316.1,169.3c0.7,0,1.2,0.5,1.2,1.2c0,0.7-0.5,1.2-1.2,1.2s-1.2-0.5-1.2-1.2
				C314.9,169.9,315.5,169.3,316.1,169.3z"/>
			<path class="st1" d="M324.9,164.2c-0.1-4,3-7.4,7-7.5c0.1,0,0.3,0,0.4,0c2.2-0.1,4.3,1,5.6,2.9l-1.5,0.8
				c-0.9-1.3-2.4-2.1-4.1-2.1c-3.1,0-5.5,2.4-5.5,5.9s2.4,5.9,5.5,5.9c1.6,0,3.1-0.8,4.1-2.1l1.5,0.8c-1.3,1.8-3.4,2.9-5.6,2.9
				c-4,0.1-7.3-3.1-7.4-7.1C324.9,164.6,324.9,164.4,324.9,164.2z"/>
			<path class="st1" d="M339.4,166.2c0-3.1,2-5.5,5.2-5.5s5.2,2.5,5.2,5.5c0,3.1-2,5.5-5.2,5.5C341.4,171.8,339.4,169.3,339.4,166.2
				z M348.1,166.2c0-2.1-1.2-4.1-3.5-4.1c-2.3,0-3.5,1.9-3.5,4.1s1.3,4.1,3.5,4.1S348.1,168.4,348.1,166.2L348.1,166.2z"/>
			<path class="st1" d="M364.9,164.4c0-1.3-0.6-2.2-1.9-2.2c-1.1,0.1-2.2,0.7-2.8,1.6v7.7h-1.6v-7.1c0-1.3-0.6-2.2-1.9-2.2
				c-1.1,0.1-2.1,0.7-2.8,1.6v7.7h-1.6v-10.6h1.6v1.5c0.8-1.1,2.1-1.7,3.4-1.8c1.3-0.1,2.5,0.7,2.8,2c0.8-1.2,2.1-1.9,3.6-2
				c1.9,0,3,1.1,3,3.2v7.6h-1.6L364.9,164.4z"/>
			<path class="st1" d="M369.6,175.5V161h1.6v1.6c0.8-1.1,2.2-1.8,3.6-1.8c2.8,0,4.7,2.1,4.7,5.5s-1.9,5.5-4.7,5.5
				c-1.4,0-2.8-0.7-3.6-1.9v5.6L369.6,175.5z M374.3,162.2c-1.3,0-2.4,0.6-3.1,1.7v4.8c0.7,1,1.9,1.7,3.1,1.7c2.1,0,3.4-1.7,3.4-4.1
				S376.5,162.2,374.3,162.2L374.3,162.2z"/>
			<path class="st1" d="M388.5,170.3c-0.9,1-2.2,1.5-3.5,1.5c-1.8,0-3.7-1.2-3.7-3.5c0-2.3,1.9-3.5,3.7-3.5c1.3-0.1,2.6,0.5,3.5,1.4
				v-1.9c0-1.4-1.1-2.2-2.7-2.2c-1.2,0-2.4,0.5-3.2,1.5l-0.7-1.1c1.1-1.2,2.6-1.8,4.2-1.7c2.2,0,4.1,1,4.1,3.6v7.2h-1.6L388.5,170.3
				z M388.5,167.3c-0.7-0.9-1.8-1.4-2.9-1.3c-1.5,0-2.6,1-2.6,2.3c0,1.3,1.1,2.3,2.6,2.3c1.1,0,2.2-0.4,2.9-1.3V167.3z"/>
			<path class="st1" d="M400.2,164.6c0-1.9-0.9-2.4-2.4-2.4c-1.2,0-2.4,0.6-3.1,1.6v7.7h-1.6V161h1.6v1.5c1-1.1,2.3-1.7,3.8-1.8
				c2.2,0,3.4,1.1,3.4,3.4v7.4h-1.6L400.2,164.6z"/>
			<path class="st1" d="M405.5,174.3c0.7,0.1,1.4-0.4,1.6-1.1l0.7-1.6l-4.4-10.6h1.8l3.5,8.6l3.5-8.6h1.8l-5.3,12.7
				c-0.4,1.3-1.7,2.2-3.1,2.1c-0.4,0-0.8-0.1-1.2-0.2l0.3-1.5C404.9,174.3,405.2,174.3,405.5,174.3z"/>
		</g>
	</g>
</g>
</svg>
