<?xml version="1.0" encoding="utf-8"?>
<!-- Generator: Adobe Illustrator 24.2.2, SVG Export Plug-In . SVG Version: 6.00 Build 0)  -->
<svg version="1.0" id="Layer_1" xmlns="http://www.w3.org/2000/svg" xmlns:xlink="http://www.w3.org/1999/xlink" x="0px" y="0px"
	 viewBox="0 0 200 200" style="enable-background:new 0 0 200 200;" xml:space="preserve">
<style type="text/css">
	.st0{fill:#0674A6;}
	.st1{fill:#0773AF;}
</style>
<g>
	<path class="st0" d="M183.4,75.3c2.2-3.6,3.3-7.7,3.3-12c0-11.8-8.8-21.5-20.1-23.1c0.1-0.6,0.1-1.3,0.1-1.9
		c0-12.6-10.9-22.7-23.6-21.6C141.5,7.3,133.3,0,123.3,0c-11,0-20,9-20,20v160c0,11,9,20,20,20c9.9,0,18.2-7.3,19.7-16.8
		c12.7,1.2,23.6-9,23.6-21.6c0-0.6,0-1.3-0.1-1.9c11.3-1.6,20.1-11.3,20.1-23.1c0-4.3-1.2-8.4-3.3-12c9.9-4,16.6-13.7,16.6-24.7
		S193.2,79.3,183.4,75.3L183.4,75.3z M177.2,119.6c-1.2,0.2-2.2,1.1-2.5,2.3c-0.4,1.2-0.1,2.4,0.8,3.3c3,3.1,4.6,7.2,4.6,11.5
		c0,9.2-7.5,16.7-16.8,16.7c0,0-0.4,0-0.4,0c-1.1,0-2.1,0.4-2.7,1.3c-0.7,0.8-0.9,1.9-0.6,3c0.4,1.4,0.6,2.8,0.6,4.1
		c0,8.3-6.7,15-15,15c-1.4,0-2.8-0.2-4.2-0.6c-1-0.3-2.1-0.1-3,0.6c-0.8,0.7-1.3,1.7-1.3,2.8c0,0.1,0.1,0.5,0.1,0.6
		c0,7.4-6,13.3-13.3,13.3s-13.3-6-13.3-13.3v-66.7h13.3v37.3c-3.9,1.4-6.7,5-6.7,9.4c0,5.5,4.5,10,10,10c5.5,0,10-4.5,10-10
		c0-4.3-2.8-8-6.7-9.4v-37.3h26.7v13.9c-3.9,1.4-6.7,5-6.7,9.4c0,5.5,4.5,10,10,10s10-4.5,10-10c0-4.3-2.8-8-6.7-9.4V110
		c0-1.8-1.5-3.3-3.3-3.3h-50V90h40.6c1.4,3.9,5,6.7,9.4,6.7c5.5,0,10-4.5,10-10c0-5.5-4.5-10-10-10c-4.3,0-8,2.8-9.4,6.7H110V66.7
		h30c1.8,0,3.3-1.5,3.3-3.3V49.4c3.9-1.4,6.7-5,6.7-9.4c0-5.5-4.5-10-10-10s-10,4.5-10,10c0,4.3,2.8,8,6.7,9.4V60H110V20
		c0-7.4,6-13.3,13.3-13.3s13.3,6,13.3,13.3c0,0.1-0.1,0.5-0.1,0.6c-0.1,1.1,0.4,2.1,1.3,2.8c0.8,0.7,2,0.9,3,0.6
		c1.4-0.4,2.8-0.6,4.2-0.6c8.3,0,15,6.7,15,15c0,1.4-0.2,2.8-0.6,4.1c-0.3,1-0.1,2.1,0.6,3c0.7,0.8,1.6,1.3,2.7,1.3c0,0,0.6,0,0.6,0
		c9.2,0,16.7,7.5,16.7,16.7c0,4.3-1.6,8.4-4.6,11.5c-0.8,0.9-1.1,2.2-0.8,3.3c0.4,1.2,1.3,2,2.5,2.3c9.4,1.8,16.2,10.1,16.2,19.6
		C193.3,109.6,186.5,117.8,177.2,119.6z M130,160c0,1.8-1.5,3.3-3.3,3.3s-3.3-1.5-3.3-3.3c0-1.8,1.5-3.3,3.3-3.3S130,158.2,130,160z
		 M163.3,136.7c0,1.8-1.5,3.3-3.3,3.3c-1.8,0-3.3-1.5-3.3-3.3c0-1.8,1.5-3.3,3.3-3.3C161.8,133.3,163.3,134.8,163.3,136.7z
		 M156.7,86.7c0-1.8,1.5-3.3,3.3-3.3c1.8,0,3.3,1.5,3.3,3.3c0,1.8-1.5,3.3-3.3,3.3C158.2,90,156.7,88.5,156.7,86.7z M136.7,40
		c0-1.8,1.5-3.3,3.3-3.3c1.8,0,3.3,1.5,3.3,3.3c0,1.8-1.5,3.3-3.3,3.3C138.2,43.3,136.7,41.8,136.7,40z"/>
	<path class="st0" d="M16.6,124.7c-2.2,3.6-3.3,7.7-3.3,12c0,11.8,8.7,21.5,20.1,23.1c-0.1,0.6-0.1,1.3-0.1,1.9
		c0,12.6,11,22.7,23.6,21.6c1.6,9.5,9.8,16.8,19.7,16.8c11,0,20-9,20-20V20c0-11-9-20-20-20c-9.9,0-18.2,7.3-19.7,16.8
		c-12.6-1.2-23.6,9-23.6,21.6c0,0.6,0,1.3,0.1,1.9c-11.3,1.6-20.1,11.3-20.1,23.1c0,4.3,1.2,8.4,3.3,12C6.8,79.3,0,89,0,100
		S6.8,120.7,16.6,124.7z M63.3,140c1.8,0,3.3,1.5,3.3,3.3c0,1.8-1.5,3.3-3.3,3.3c-1.8,0-3.3-1.5-3.3-3.3C60,141.5,61.5,140,63.3,140
		z M66.7,152.7c3.9-1.4,6.7-5,6.7-9.4c0-4.3-2.8-8-6.7-9.4v-20.6H90V160H66.7V152.7z M22.8,80.4c1.2-0.2,2.2-1.1,2.5-2.3
		c0.4-1.2,0.1-2.4-0.8-3.3c-3-3.1-4.6-7.2-4.6-11.5c0-9.2,7.5-16.7,16.8-16.7c0,0,0.4,0,0.4,0c1,0,2.1-0.4,2.7-1.3s0.9-1.9,0.6-3
		c-0.4-1.4-0.6-2.8-0.6-4.1c0-8.3,6.7-15,15-15c1.4,0,2.8,0.2,4.2,0.6c1,0.3,2.1,0.1,3-0.6c0.8-0.7,1.3-1.7,1.3-2.8
		c0-0.1-0.1-0.5-0.1-0.6c0-7.4,6-13.3,13.3-13.3C84,6.7,90,12.6,90,20v40H73.3V49.4c3.9-1.4,6.7-5,6.7-9.4c0-5.5-4.5-10-10-10
		s-10,4.5-10,10c0,4.3,2.8,8,6.7,9.4V60H49.4c-1.4-3.9-5-6.7-9.4-6.7c-5.5,0-10,4.5-10,10s4.5,10,10,10c4.3,0,8-2.8,9.4-6.7H70h20
		v16.7H43.3c-1.8,0-3.3,1.5-3.3,3.3v20.6c-3.9,1.4-6.7,5-6.7,9.4c0,5.5,4.5,10,10,10c5.5,0,10-4.5,10-10c0-4.3-2.8-8-6.7-9.4V90H90
		v16.7H63.3c-1.8,0-3.3,1.5-3.3,3.3v23.9c-3.9,1.4-6.7,5-6.7,9.4s2.8,8,6.7,9.4v10.6c0,1.8,1.5,3.3,3.3,3.3H90V180
		c0,7.4-6,13.3-13.3,13.3c-7.4,0-13.3-6-13.3-13.3c0-0.1,0.1-0.5,0.1-0.6c0-1.1-0.4-2.1-1.3-2.8c-0.6-0.5-1.3-0.7-2.1-0.7
		c-0.3,0-0.6,0-0.9,0.1c-1.4,0.4-2.8,0.6-4.2,0.6c-8.3,0-15-6.7-15-15c0-1.4,0.2-2.8,0.6-4.1c0.3-1,0.1-2.1-0.6-3
		c-0.7-0.8-1.7-1.3-2.7-1.3c0,0-0.6,0-0.6,0c-9.2,0-16.7-7.5-16.7-16.7c0-4.3,1.6-8.4,4.6-11.5c0.8-0.9,1.1-2.2,0.8-3.3
		c-0.4-1.2-1.3-2-2.5-2.3c-9.4-1.8-16.2-10.1-16.2-19.6S13.5,82.2,22.8,80.4L22.8,80.4z M66.7,40c0-1.8,1.5-3.3,3.3-3.3
		s3.3,1.5,3.3,3.3s-1.5,3.3-3.3,3.3S66.7,41.8,66.7,40z M43.3,63.3c0,1.8-1.5,3.3-3.3,3.3s-3.3-1.5-3.3-3.3S38.2,60,40,60
		S43.3,61.5,43.3,63.3z M46.7,116.7c0,1.8-1.5,3.3-3.3,3.3c-1.8,0-3.3-1.5-3.3-3.3s1.5-3.3,3.3-3.3
		C45.2,113.3,46.7,114.8,46.7,116.7z"/>
	<path class="st0" d="M150,60h6.7v6.7H150V60z"/>
	<path class="st0" d="M13.3,96.7H20v6.7h-6.7V96.7z"/>
	<path class="st0" d="M33.3,136.7H40v6.7h-6.7V136.7z"/>
	<path class="st0" d="M176.7,96.7h6.7v6.7h-6.7V96.7z"/>
</g>
</svg>
