<?xml version="1.0" encoding="utf-8"?>
<!-- Generator: Adobe Illustrator 24.2.2, SVG Export Plug-In . SVG Version: 6.00 Build 0)  -->
<svg version="1.0" id="Layer_1" xmlns="http://www.w3.org/2000/svg" xmlns:xlink="http://www.w3.org/1999/xlink" x="0px" y="0px"
	 viewBox="0 0 200 200" style="enable-background:new 0 0 200 200;" xml:space="preserve">
<style type="text/css">
	.st0{fill:#0674A6;}
	.st1{fill:#0773AF;}
</style>
<g id="iiACKi.tif">
	<g>
		<path class="st0" d="M200,129c-2.6,5.6-6.8,7.7-13.1,7.7c-57.9-0.2-115.8-0.1-173.8-0.1c-9.8,0-13.2-3.4-13.2-13
			c0-30.4,0-60.7,0-91.1c0-9.2,3.7-12.8,13-12.8c57.9,0,115.8,0.1,173.8-0.1c6.4,0,10.8,2.1,13.2,8.1C200,61.4,200,95.2,200,129z
			 M99.6,128.5c28.9,0,57.8-0.1,86.7,0.1c4.5,0,5.8-1.2,5.8-5.8c-0.2-29.8-0.1-59.6-0.1-89.3c0-5.7,0-5.7-5.7-5.7
			c-57.5,0-115,0-172.4,0c-5.7,0-5.7,0-5.7,5.7C8.1,63.2,8.2,93,8,122.8c0,4.5,1.3,5.8,5.8,5.8C42.4,128.4,71,128.5,99.6,128.5z"/>
		<path class="st0" d="M200,165.4c-2.1,0.9-4.3,2.6-6.4,2.6c-24,0.2-47.9,0.1-71.9,0.1c-2.8,0-4.7,0.2-6.1,3.4
			c-2.6,5.9-7.9,8.9-14.2,8.9c-6.5,0-11.8-3-14.5-9.2c-1.2-2.8-2.8-3.1-5.4-3.1c-24.6,0.1-49.1,0-73.7,0c-1.2,0-2.6,0.4-3.5-0.1
			c-1.6-0.9-3.9-2.5-3.8-3.7c0.1-1.4,2.1-3,3.7-4.1c0.8-0.6,2.3-0.1,3.5-0.1c24.6,0,49.1,0,73.7,0c2.7,0,4.4-0.4,5.7-3.3
			c2.6-6,7.9-8.8,14.2-8.9c6.5,0,11.8,2.9,14.5,9.1c1.1,2.5,2.5,3.1,5,3.1c24.3-0.1,48.5-0.1,72.8,0.1c2.2,0,4.4,1.7,6.6,2.6
			C200,163.7,200,164.6,200,165.4z M101.2,156c-4.5,0-8,3.8-7.9,8.4c0.1,4.3,3.6,7.9,7.9,8c4.4,0.1,8.2-3.7,8.2-8.2
			C109.3,159.7,105.6,156,101.2,156z"/>
		<path class="st0" d="M76.4,78.1c0-8.6-0.2-17.2,0.1-25.8c0.1-1.9,1.2-4.3,2.7-5.4c0.9-0.7,3.6,0.3,5,1.3
			c12,8.4,23.9,16.8,35.9,25.4c4.8,3.4,4.8,5.7-0.1,9.1c-11.8,8.4-23.6,16.9-35.5,25.1c-1.5,1.1-4.3,2.1-5.4,1.4
			c-1.5-0.9-2.5-3.5-2.6-5.4C76.3,95.3,76.4,86.7,76.4,78.1z M112.4,78.2c-9.4-6.7-18.3-13-27.6-19.6c0,13.3,0,25.9,0,39.2
			C94.3,91.1,103.1,84.8,112.4,78.2z"/>
	</g>
</g>
</svg>
